<svg id="Layer_1" viewBox="0 0 512 512" xmlns="http://www.w3.org/2000/svg" data-name="Layer 1"><path d="m274.379 209.576a41.525 41.525 0 1 0 41.521 41.524 41.572 41.572 0 0 0 -41.521-41.524zm0 71.049a29.525 29.525 0 1 1 29.521-29.525 29.558 29.558 0 0 1 -29.521 29.525z"/><path d="m363.8 381.073a30.5 30.5 0 1 0 30.5 30.5 30.534 30.534 0 0 0 -30.5-30.5zm0 49a18.5 18.5 0 1 1 18.5-18.5 18.521 18.521 0 0 1 -18.5 18.499z"/><path d="m181.281 384.748a18.25 18.25 0 1 0 18.25 18.252 18.27 18.27 0 0 0 -18.25-18.252zm0 24.5a6.25 6.25 0 1 1 6.25-6.25 6.257 6.257 0 0 1 -6.25 6.249z"/><path d="m184.831 139.627a30.5 30.5 0 1 0 -30.5 30.5 30.535 30.535 0 0 0 30.5-30.5zm-30.5 18.5a18.5 18.5 0 1 1 18.5-18.5 18.521 18.521 0 0 1 -18.499 18.5z"/><path d="m256.005 5a251 251 0 0 0 -177.481 428.48 250.995 250.995 0 1 0 354.961-354.96 249.348 249.348 0 0 0 -177.48-73.52zm-18.163 12.683q9.019-.673 18.163-.679a239.536 239.536 0 0 1 74.483 11.785 46.655 46.655 0 1 1 -92.646-11.106zm-197.042 342.517a237.407 237.407 0 0 1 -23.427-91.072 49.126 49.126 0 1 1 25.486 91.124c-.685-.004-1.373-.028-2.059-.052zm454.2-104.2c0 .524-.016 1.046-.019 1.57a49.107 49.107 0 1 1 -14.829-84.811 239.039 239.039 0 0 1 14.848 83.241zm-30.749-97.873a61.124 61.124 0 1 0 30.186 114.264 238.995 238.995 0 0 1 -407.428 152.609 240.1 240.1 0 0 1 -40.017-52.9 61.117 61.117 0 1 0 -29.979-116.376 239.055 239.055 0 0 1 208.67-236.819c-.106 1.445-.178 2.893-.178 4.341a58.635 58.635 0 0 0 58.674 58.554 58.374 58.374 0 0 0 57.853-48.909 240.688 240.688 0 0 1 132.542 126.119 61.552 61.552 0 0 0 -10.323-.883z"/></svg>